<?xml version="1.0" encoding="UTF-8" standalone="no"?><!DOCTYPE svg PUBLIC "-//W3C//DTD SVG 1.1//EN" "http://www.w3.org/Graphics/SVG/1.1/DTD/svg11.dtd"><svg width="100%" height="100%" viewBox="0 0 188 188" version="1.1" xmlns="http://www.w3.org/2000/svg" xmlns:xlink="http://www.w3.org/1999/xlink" xml:space="preserve" xmlns:serif="http://www.serif.com/" style="fill-rule:evenodd;clip-rule:evenodd;stroke-linejoin:round;stroke-miterlimit:2;"><g><path d="M110.736,167.083c-2.5,2.5 -4.167,4.583 -5,7.917l29.583,0c-0.833,-2.917 -2.5,-5.417 -5,-7.917l-19.583,0Zm27.5,-15c-2.5,1.667 -5.417,2.917 -8.333,4.583l-0.833,0.417l0.833,0.417c9.167,5.417 13.333,12.917 13.333,22.5c0,2.5 2.083,4.583 4.583,4.583c2.5,0 4.583,-2.083 4.583,-4.583c0,-11.25 -4.583,-20.417 -13.75,-27.5l-0.417,-0.417Zm-32.917,-30.417c0.833,2.917 2.5,5.417 5,7.917l19.167,0c2.5,-2.5 4.167,-4.583 5,-7.917l-29.167,0Zm5.417,-18.75c-2.5,2.5 -4.167,4.583 -5,7.917l29.583,0c-0.833,-2.917 -2.5,-5.417 -5,-7.917l-19.583,0Zm-22.083,-51.25c0,-2.917 2.5,-5.417 5.417,-5.417c2.917,0 5.417,2.5 5.417,5.417c0,2.917 -2.5,5.417 -5.417,5.417c-3.333,0 -5.417,-2.5 -5.417,-5.417Zm52.5,0c0,-2.917 2.5,-5.417 5.417,-5.417c2.917,0 5.417,2.5 5.417,5.417c0,2.917 -2.5,5.417 -5.417,5.417c-2.917,0 -5.417,-2.5 -5.417,-5.417Zm-73.333,-2.917c-0.417,2.083 -0.833,4.167 -1.25,5c-3.333,9.167 -8.333,13.75 -8.333,13.75c-1.25,0.833 -2.083,2.083 -2.083,3.333l0,1.667c0.417,1.667 2.083,3.333 3.75,3.333c24.583,2.5 38.333,5.833 47.5,8.75c-12.917,7.5 -19.583,17.917 -19.583,31.25c0,13.75 7.083,24.583 20.417,32.083c-13.333,7.5 -20.417,18.333 -20.417,32.083c0,2.5 2.083,4.583 4.583,4.583c2.5,0 4.583,-2.083 4.583,-4.583c0,-16.25 12.917,-23.333 22.917,-27.083c0.417,0 0.833,-0.417 1.25,-0.417c3.333,-1.25 6.667,-2.5 9.583,-4.167c14.167,-7.5 21.25,-18.333 21.25,-32.5c0,-10.417 -4.167,-19.167 -12.083,-26.25c-3.75,0.833 -7.5,2.083 -10.417,2.917l-0.833,0.417l0.833,0.417c9.167,5.417 13.333,12.917 13.333,22.5c0,16.25 -12.917,23.333 -22.917,26.667c-9.583,-3.75 -22.5,-10.417 -22.5,-26.667c0,-16.25 12.917,-23.333 22.917,-27.083l0.833,0c2.083,-0.833 5.417,-2.5 11.25,-3.75c9.167,-2.917 23.333,-6.25 48.75,-8.75c2.083,0 3.333,-1.667 3.75,-3.333c0.417,-1.667 -0.417,-3.75 -2.083,-4.583c0,0 -4.583,-4.583 -8.333,-13.75c-0.417,-1.25 -0.833,-2.917 -1.25,-5c-3.75,-14.583 -11.667,-46.667 -52.917,-46.667c-40.833,-0 -49.167,32.083 -52.5,45.833Z" style="fill:#6c757d;fill-rule:nonzero;"/><path d="M82.146,129.676c0.53,0.461 0.834,1.13 0.834,1.833c0,0.598 -0.221,1.176 -0.62,1.621c-0.903,1.01 -2.465,1.103 -3.486,0.21l-31.489,-27.494l-0,72.307c0,1.356 -1.111,2.455 -2.482,2.455c-1.368,0 -2.48,-1.099 -2.48,-2.455l0,-72.309l-31.489,27.496c-1.021,0.893 -2.583,0.8 -3.486,-0.21c-0.903,-1.012 -0.808,-2.558 0.212,-3.454l35.568,-31.055c0.92,-0.843 2.352,-0.875 3.312,-0.034l35.606,31.089Z" style="fill:#6c757d;fill-rule:nonzero;stroke:#6c757d;stroke-width:7.62px;"/></g></svg>