<svg xmlns="http://www.w3.org/2000/svg" xml:space="preserve" style="fill-rule:evenodd;clip-rule:evenodd;stroke-linejoin:round;stroke-miterlimit:2" viewBox="0 0 188 188">
  <path d="M110.736 167.083c-2.5 2.5-4.167 4.583-5 7.917h29.583c-.833-2.917-2.5-5.417-5-7.917zm27.5-15c-2.5 1.667-5.417 2.917-8.333 4.583l-.833.417.833.417c9.167 5.417 13.333 12.917 13.333 22.5 0 2.5 2.083 4.583 4.583 4.583s4.583-2.083 4.583-4.583q0-16.875-13.75-27.5l-.417-.417Zm-32.917-30.417c.833 2.917 2.5 5.417 5 7.917h19.167c2.5-2.5 4.167-4.583 5-7.917zm5.417-18.75c-2.5 2.5-4.167 4.583-5 7.917h29.583c-.833-2.917-2.5-5.417-5-7.917zm-22.083-51.25c0-2.917 2.5-5.417 5.417-5.417s5.417 2.5 5.417 5.417-2.5 5.417-5.417 5.417c-3.333 0-5.417-2.5-5.417-5.417m52.5 0c0-2.917 2.5-5.417 5.417-5.417s5.417 2.5 5.417 5.417-2.5 5.417-5.417 5.417-5.417-2.5-5.417-5.417M67.82 48.749c-.417 2.083-.833 4.167-1.25 5-3.333 9.167-8.333 13.75-8.333 13.75-1.25.833-2.083 2.083-2.083 3.333v1.667c.417 1.667 2.083 3.333 3.75 3.333 24.583 2.5 38.333 5.833 47.5 8.75-12.917 7.5-19.583 17.917-19.583 31.25 0 13.75 7.083 24.583 20.417 32.083-13.333 7.5-20.417 18.333-20.417 32.083 0 2.5 2.083 4.583 4.583 4.583s4.583-2.083 4.583-4.583c0-16.25 12.917-23.333 22.917-27.083.417 0 .833-.417 1.25-.417 3.333-1.25 6.667-2.5 9.583-4.167q21.25-11.25 21.25-32.5c0-10.417-4.167-19.167-12.083-26.25-3.75.833-7.5 2.083-10.417 2.917l-.833.417.833.417c9.167 5.417 13.333 12.917 13.333 22.5 0 16.25-12.917 23.333-22.917 26.667-9.583-3.75-22.5-10.417-22.5-26.667s12.917-23.333 22.917-27.083h.833c2.083-.833 5.417-2.5 11.25-3.75 9.167-2.917 23.333-6.25 48.75-8.75 2.083 0 3.333-1.667 3.75-3.333s-.417-3.75-2.083-4.583c0 0-4.583-4.583-8.333-13.75q-.625-1.875-1.25-5C169.487 35 161.57 2.916 120.32 2.916c-40.833 0-49.167 32.083-52.5 45.833" style="fill:#6c757d;fill-rule:nonzero"/>
  <path d="M82.146 129.676a2.43 2.43 0 0 1 .214 3.454 2.49 2.49 0 0 1-3.486.21l-31.489-27.494v72.307c0 1.356-1.111 2.455-2.482 2.455-1.368 0-2.48-1.099-2.48-2.455v-72.309L10.934 133.34a2.49 2.49 0 0 1-3.486-.21 2.433 2.433 0 0 1 .212-3.454l35.568-31.055a2.487 2.487 0 0 1 3.312-.034z" style="fill:#6c757d;fill-rule:nonzero;stroke:#6c757d;stroke-width:7.62px"/>
</svg>
